<mxfile host="app.diagrams.net" modified="2020-10-15T15:12:25.761Z" agent="5.0 (Macintosh; Intel Mac OS X 10_15_6) AppleWebKit/537.36 (KHTML, like Gecko) Chrome/85.0.4183.121 Safari/537.36" etag="c4EoC-0dyPLi7ywhRhy4" version="13.8.0" type="github">
  <diagram id="A1JgUmCUFF9uFWXedutz" name="Page-1">
    <mxGraphModel dx="1526" dy="924" grid="1" gridSize="10" guides="1" tooltips="1" connect="1" arrows="1" fold="1" page="1" pageScale="1" pageWidth="1169" pageHeight="827" math="0" shadow="0">
      <root>
        <mxCell id="0" />
        <mxCell id="1" parent="0" />
        <mxCell id="jFJJfG664hvmAsr5JOJt-5" style="edgeStyle=orthogonalEdgeStyle;rounded=0;orthogonalLoop=1;jettySize=auto;html=1;entryX=0.5;entryY=0;entryDx=0;entryDy=0;exitX=0.5;exitY=1;exitDx=0;exitDy=0;" parent="1" source="jFJJfG664hvmAsr5JOJt-14" target="jFJJfG664hvmAsr5JOJt-24" edge="1">
          <mxGeometry relative="1" as="geometry">
            <mxPoint x="715" y="663.5" as="sourcePoint" />
            <Array as="points">
              <mxPoint x="1020" y="330" />
              <mxPoint x="585" y="330" />
            </Array>
          </mxGeometry>
        </mxCell>
        <mxCell id="jFJJfG664hvmAsr5JOJt-10" style="edgeStyle=orthogonalEdgeStyle;rounded=0;orthogonalLoop=1;jettySize=auto;html=1;entryX=0.5;entryY=0;entryDx=0;entryDy=0;" parent="1" source="jFJJfG664hvmAsr5JOJt-31" target="jFJJfG664hvmAsr5JOJt-24" edge="1">
          <mxGeometry relative="1" as="geometry">
            <Array as="points">
              <mxPoint x="645" y="330" />
              <mxPoint x="585" y="330" />
            </Array>
          </mxGeometry>
        </mxCell>
        <mxCell id="jFJJfG664hvmAsr5JOJt-11" style="edgeStyle=orthogonalEdgeStyle;rounded=0;orthogonalLoop=1;jettySize=auto;html=1;entryX=0.5;entryY=0;entryDx=0;entryDy=0;" parent="1" source="jFJJfG664hvmAsr5JOJt-12" target="jFJJfG664hvmAsr5JOJt-24" edge="1">
          <mxGeometry relative="1" as="geometry">
            <Array as="points">
              <mxPoint x="470" y="330" />
              <mxPoint x="585" y="330" />
            </Array>
          </mxGeometry>
        </mxCell>
        <mxCell id="jFJJfG664hvmAsr5JOJt-12" value="Boundary Conditions" style="shape=parallelogram;perimeter=parallelogramPerimeter;whiteSpace=wrap;html=1;fixedSize=1;rounded=1;" parent="1" vertex="1">
          <mxGeometry x="425" y="160" width="100" height="50" as="geometry" />
        </mxCell>
        <mxCell id="jFJJfG664hvmAsr5JOJt-14" value="Buildings" style="shape=parallelogram;perimeter=parallelogramPerimeter;whiteSpace=wrap;html=1;fixedSize=1;rounded=1;" parent="1" vertex="1">
          <mxGeometry x="975" y="165.25" width="100" height="46.5" as="geometry" />
        </mxCell>
        <mxCell id="jFJJfG664hvmAsr5JOJt-18" style="edgeStyle=orthogonalEdgeStyle;rounded=0;orthogonalLoop=1;jettySize=auto;html=1;entryX=0.5;entryY=0;entryDx=0;entryDy=0;exitX=0.5;exitY=1;exitDx=0;exitDy=0;" parent="1" source="jFJJfG664hvmAsr5JOJt-19" target="jFJJfG664hvmAsr5JOJt-24" edge="1">
          <mxGeometry relative="1" as="geometry">
            <Array as="points">
              <mxPoint x="140" y="330" />
              <mxPoint x="585" y="330" />
            </Array>
          </mxGeometry>
        </mxCell>
        <mxCell id="jFJJfG664hvmAsr5JOJt-19" value="Friction&amp;nbsp;" style="shape=parallelogram;perimeter=parallelogramPerimeter;whiteSpace=wrap;html=1;fixedSize=1;rounded=1;" parent="1" vertex="1">
          <mxGeometry x="95" y="160" width="100" height="50" as="geometry" />
        </mxCell>
        <mxCell id="jFJJfG664hvmAsr5JOJt-23" style="edgeStyle=orthogonalEdgeStyle;rounded=0;orthogonalLoop=1;jettySize=auto;html=1;entryX=0.5;entryY=0;entryDx=0;entryDy=0;" parent="1" source="jFJJfG664hvmAsr5JOJt-24" target="jFJJfG664hvmAsr5JOJt-33" edge="1">
          <mxGeometry relative="1" as="geometry" />
        </mxCell>
        <mxCell id="jFJJfG664hvmAsr5JOJt-24" value="City Catchment Analysis Tool" style="rounded=1;whiteSpace=wrap;html=1;fontSize=12;glass=0;strokeWidth=1;shadow=0;" parent="1" vertex="1">
          <mxGeometry x="525" y="460" width="120" height="50" as="geometry" />
        </mxCell>
        <mxCell id="jFJJfG664hvmAsr5JOJt-26" value="Rainfall" style="shape=parallelogram;perimeter=parallelogramPerimeter;whiteSpace=wrap;html=1;fixedSize=1;rounded=1;" parent="1" vertex="1">
          <mxGeometry x="795" y="163.75" width="100" height="46.5" as="geometry" />
        </mxCell>
        <mxCell id="jFJJfG664hvmAsr5JOJt-27" value="Dataset" style="shape=parallelogram;perimeter=parallelogramPerimeter;whiteSpace=wrap;html=1;fixedSize=1;rounded=1;" parent="1" vertex="1">
          <mxGeometry x="150" y="615" width="90" height="40" as="geometry" />
        </mxCell>
        <mxCell id="jFJJfG664hvmAsr5JOJt-28" value="Model" style="rounded=1;whiteSpace=wrap;html=1;fontSize=12;glass=0;strokeWidth=1;shadow=0;" parent="1" vertex="1">
          <mxGeometry x="265" y="620" width="80" height="30" as="geometry" />
        </mxCell>
        <mxCell id="jFJJfG664hvmAsr5JOJt-29" style="edgeStyle=orthogonalEdgeStyle;rounded=0;orthogonalLoop=1;jettySize=auto;html=1;entryX=0.5;entryY=0;entryDx=0;entryDy=0;" parent="1" source="jFJJfG664hvmAsr5JOJt-30" target="jFJJfG664hvmAsr5JOJt-24" edge="1">
          <mxGeometry relative="1" as="geometry">
            <Array as="points">
              <mxPoint x="290" y="330" />
              <mxPoint x="585" y="330" />
            </Array>
          </mxGeometry>
        </mxCell>
        <mxCell id="jFJJfG664hvmAsr5JOJt-30" value="Infiltration" style="shape=parallelogram;perimeter=parallelogramPerimeter;whiteSpace=wrap;html=1;fixedSize=1;rounded=1;" parent="1" vertex="1">
          <mxGeometry x="245" y="160" width="100" height="50" as="geometry" />
        </mxCell>
        <mxCell id="jFJJfG664hvmAsr5JOJt-33" value="Water Depth &amp;amp; Velocity" style="shape=parallelogram;perimeter=parallelogramPerimeter;whiteSpace=wrap;html=1;fixedSize=1;rounded=1;" parent="1" vertex="1">
          <mxGeometry x="525" y="615" width="120" height="45" as="geometry" />
        </mxCell>
        <mxCell id="jFJJfG664hvmAsr5JOJt-31" value="Topography" style="shape=parallelogram;perimeter=parallelogramPerimeter;whiteSpace=wrap;html=1;fixedSize=1;rounded=1;" parent="1" vertex="1">
          <mxGeometry x="605" y="163.5" width="100" height="50" as="geometry" />
        </mxCell>
        <mxCell id="jFJJfG664hvmAsr5JOJt-37" style="edgeStyle=orthogonalEdgeStyle;rounded=0;orthogonalLoop=1;jettySize=auto;html=1;entryX=0.5;entryY=0;entryDx=0;entryDy=0;exitX=0.5;exitY=1;exitDx=0;exitDy=0;" parent="1" source="jFJJfG664hvmAsr5JOJt-26" target="jFJJfG664hvmAsr5JOJt-24" edge="1">
          <mxGeometry relative="1" as="geometry">
            <mxPoint x="840" y="210" as="sourcePoint" />
            <mxPoint x="585" y="403.5" as="targetPoint" />
            <Array as="points">
              <mxPoint x="840" y="330" />
              <mxPoint x="585" y="330" />
            </Array>
          </mxGeometry>
        </mxCell>
        <mxCell id="qpgoH7Dkkdjb4YdEsGVw-1" value="" style="shape=table;html=1;whiteSpace=wrap;startSize=0;container=1;collapsible=0;childLayout=tableLayout;spacingTop=0;" vertex="1" parent="1">
          <mxGeometry x="326" y="740" width="513" height="320" as="geometry" />
        </mxCell>
        <mxCell id="qpgoH7Dkkdjb4YdEsGVw-2" value="" style="shape=partialRectangle;html=1;whiteSpace=wrap;collapsible=0;dropTarget=0;pointerEvents=0;fillColor=none;top=0;left=0;bottom=0;right=0;points=[[0,0.5],[1,0.5]];portConstraint=eastwest;" vertex="1" parent="qpgoH7Dkkdjb4YdEsGVw-1">
          <mxGeometry width="513" height="40" as="geometry" />
        </mxCell>
        <mxCell id="qpgoH7Dkkdjb4YdEsGVw-3" value="&lt;b&gt;Dataset&lt;/b&gt;" style="shape=partialRectangle;html=1;whiteSpace=wrap;connectable=0;fillColor=none;top=0;left=0;bottom=0;right=0;overflow=hidden;" vertex="1" parent="qpgoH7Dkkdjb4YdEsGVw-2">
          <mxGeometry width="257" height="40" as="geometry" />
        </mxCell>
        <mxCell id="qpgoH7Dkkdjb4YdEsGVw-4" value="&lt;b&gt;Format&lt;/b&gt;" style="shape=partialRectangle;html=1;whiteSpace=wrap;connectable=0;fillColor=none;top=0;left=0;bottom=0;right=0;overflow=hidden;" vertex="1" parent="qpgoH7Dkkdjb4YdEsGVw-2">
          <mxGeometry x="257" width="256" height="40" as="geometry" />
        </mxCell>
        <mxCell id="qpgoH7Dkkdjb4YdEsGVw-6" value="" style="shape=partialRectangle;html=1;whiteSpace=wrap;collapsible=0;dropTarget=0;pointerEvents=0;fillColor=none;top=0;left=0;bottom=0;right=0;points=[[0,0.5],[1,0.5]];portConstraint=eastwest;" vertex="1" parent="qpgoH7Dkkdjb4YdEsGVw-1">
          <mxGeometry y="40" width="513" height="40" as="geometry" />
        </mxCell>
        <mxCell id="qpgoH7Dkkdjb4YdEsGVw-7" value="Friction" style="shape=partialRectangle;html=1;whiteSpace=wrap;connectable=0;fillColor=none;top=0;left=0;bottom=0;right=0;overflow=hidden;" vertex="1" parent="qpgoH7Dkkdjb4YdEsGVw-6">
          <mxGeometry width="257" height="40" as="geometry" />
        </mxCell>
        <mxCell id="qpgoH7Dkkdjb4YdEsGVw-8" value="Text" style="shape=partialRectangle;html=1;whiteSpace=wrap;connectable=0;fillColor=none;top=0;left=0;bottom=0;right=0;overflow=hidden;" vertex="1" parent="qpgoH7Dkkdjb4YdEsGVw-6">
          <mxGeometry x="257" width="256" height="40" as="geometry" />
        </mxCell>
        <mxCell id="qpgoH7Dkkdjb4YdEsGVw-10" value="" style="shape=partialRectangle;html=1;whiteSpace=wrap;collapsible=0;dropTarget=0;pointerEvents=0;fillColor=none;top=0;left=0;bottom=0;right=0;points=[[0,0.5],[1,0.5]];portConstraint=eastwest;" vertex="1" parent="qpgoH7Dkkdjb4YdEsGVw-1">
          <mxGeometry y="80" width="513" height="40" as="geometry" />
        </mxCell>
        <mxCell id="qpgoH7Dkkdjb4YdEsGVw-11" value="Infiltration" style="shape=partialRectangle;html=1;whiteSpace=wrap;connectable=0;fillColor=none;top=0;left=0;bottom=0;right=0;overflow=hidden;" vertex="1" parent="qpgoH7Dkkdjb4YdEsGVw-10">
          <mxGeometry width="257" height="40" as="geometry" />
        </mxCell>
        <mxCell id="qpgoH7Dkkdjb4YdEsGVw-12" value="Text" style="shape=partialRectangle;html=1;whiteSpace=wrap;connectable=0;fillColor=none;top=0;left=0;bottom=0;right=0;overflow=hidden;" vertex="1" parent="qpgoH7Dkkdjb4YdEsGVw-10">
          <mxGeometry x="257" width="256" height="40" as="geometry" />
        </mxCell>
        <mxCell id="qpgoH7Dkkdjb4YdEsGVw-26" style="shape=partialRectangle;html=1;whiteSpace=wrap;collapsible=0;dropTarget=0;pointerEvents=0;fillColor=none;top=0;left=0;bottom=0;right=0;points=[[0,0.5],[1,0.5]];portConstraint=eastwest;" vertex="1" parent="qpgoH7Dkkdjb4YdEsGVw-1">
          <mxGeometry y="120" width="513" height="40" as="geometry" />
        </mxCell>
        <mxCell id="qpgoH7Dkkdjb4YdEsGVw-27" value="Boundary Conditions" style="shape=partialRectangle;html=1;whiteSpace=wrap;connectable=0;fillColor=none;top=0;left=0;bottom=0;right=0;overflow=hidden;" vertex="1" parent="qpgoH7Dkkdjb4YdEsGVw-26">
          <mxGeometry width="257" height="40" as="geometry" />
        </mxCell>
        <mxCell id="qpgoH7Dkkdjb4YdEsGVw-28" value="Text" style="shape=partialRectangle;html=1;whiteSpace=wrap;connectable=0;fillColor=none;top=0;left=0;bottom=0;right=0;overflow=hidden;" vertex="1" parent="qpgoH7Dkkdjb4YdEsGVw-26">
          <mxGeometry x="257" width="256" height="40" as="geometry" />
        </mxCell>
        <mxCell id="qpgoH7Dkkdjb4YdEsGVw-23" style="shape=partialRectangle;html=1;whiteSpace=wrap;collapsible=0;dropTarget=0;pointerEvents=0;fillColor=none;top=0;left=0;bottom=0;right=0;points=[[0,0.5],[1,0.5]];portConstraint=eastwest;" vertex="1" parent="qpgoH7Dkkdjb4YdEsGVw-1">
          <mxGeometry y="160" width="513" height="40" as="geometry" />
        </mxCell>
        <mxCell id="qpgoH7Dkkdjb4YdEsGVw-24" value="Topography" style="shape=partialRectangle;html=1;whiteSpace=wrap;connectable=0;fillColor=none;top=0;left=0;bottom=0;right=0;overflow=hidden;" vertex="1" parent="qpgoH7Dkkdjb4YdEsGVw-23">
          <mxGeometry width="257" height="40" as="geometry" />
        </mxCell>
        <mxCell id="qpgoH7Dkkdjb4YdEsGVw-25" value="Arc/Info ASCII Grid" style="shape=partialRectangle;html=1;whiteSpace=wrap;connectable=0;fillColor=none;top=0;left=0;bottom=0;right=0;overflow=hidden;" vertex="1" parent="qpgoH7Dkkdjb4YdEsGVw-23">
          <mxGeometry x="257" width="256" height="40" as="geometry" />
        </mxCell>
        <mxCell id="qpgoH7Dkkdjb4YdEsGVw-20" style="shape=partialRectangle;html=1;whiteSpace=wrap;collapsible=0;dropTarget=0;pointerEvents=0;fillColor=none;top=0;left=0;bottom=0;right=0;points=[[0,0.5],[1,0.5]];portConstraint=eastwest;" vertex="1" parent="qpgoH7Dkkdjb4YdEsGVw-1">
          <mxGeometry y="200" width="513" height="40" as="geometry" />
        </mxCell>
        <mxCell id="qpgoH7Dkkdjb4YdEsGVw-21" value="Rainfall" style="shape=partialRectangle;html=1;whiteSpace=wrap;connectable=0;fillColor=none;top=0;left=0;bottom=0;right=0;overflow=hidden;" vertex="1" parent="qpgoH7Dkkdjb4YdEsGVw-20">
          <mxGeometry width="257" height="40" as="geometry" />
        </mxCell>
        <mxCell id="qpgoH7Dkkdjb4YdEsGVw-22" value="Text" style="shape=partialRectangle;html=1;whiteSpace=wrap;connectable=0;fillColor=none;top=0;left=0;bottom=0;right=0;overflow=hidden;" vertex="1" parent="qpgoH7Dkkdjb4YdEsGVw-20">
          <mxGeometry x="257" width="256" height="40" as="geometry" />
        </mxCell>
        <mxCell id="qpgoH7Dkkdjb4YdEsGVw-17" style="shape=partialRectangle;html=1;whiteSpace=wrap;collapsible=0;dropTarget=0;pointerEvents=0;fillColor=none;top=0;left=0;bottom=0;right=0;points=[[0,0.5],[1,0.5]];portConstraint=eastwest;" vertex="1" parent="qpgoH7Dkkdjb4YdEsGVw-1">
          <mxGeometry y="240" width="513" height="40" as="geometry" />
        </mxCell>
        <mxCell id="qpgoH7Dkkdjb4YdEsGVw-18" value="Buildings" style="shape=partialRectangle;html=1;whiteSpace=wrap;connectable=0;fillColor=none;top=0;left=0;bottom=0;right=0;overflow=hidden;" vertex="1" parent="qpgoH7Dkkdjb4YdEsGVw-17">
          <mxGeometry width="257" height="40" as="geometry" />
        </mxCell>
        <mxCell id="qpgoH7Dkkdjb4YdEsGVw-19" value="Text" style="shape=partialRectangle;html=1;whiteSpace=wrap;connectable=0;fillColor=none;top=0;left=0;bottom=0;right=0;overflow=hidden;" vertex="1" parent="qpgoH7Dkkdjb4YdEsGVw-17">
          <mxGeometry x="257" width="256" height="40" as="geometry" />
        </mxCell>
        <mxCell id="qpgoH7Dkkdjb4YdEsGVw-14" style="shape=partialRectangle;html=1;whiteSpace=wrap;collapsible=0;dropTarget=0;pointerEvents=0;fillColor=none;top=0;left=0;bottom=0;right=0;points=[[0,0.5],[1,0.5]];portConstraint=eastwest;" vertex="1" parent="qpgoH7Dkkdjb4YdEsGVw-1">
          <mxGeometry y="280" width="513" height="40" as="geometry" />
        </mxCell>
        <mxCell id="qpgoH7Dkkdjb4YdEsGVw-15" value="Water Depth &amp;amp; Velocity" style="shape=partialRectangle;html=1;whiteSpace=wrap;connectable=0;fillColor=none;top=0;left=0;bottom=0;right=0;overflow=hidden;" vertex="1" parent="qpgoH7Dkkdjb4YdEsGVw-14">
          <mxGeometry width="257" height="40" as="geometry" />
        </mxCell>
        <mxCell id="qpgoH7Dkkdjb4YdEsGVw-16" value="Ungridded XYZ" style="shape=partialRectangle;html=1;whiteSpace=wrap;connectable=0;fillColor=none;top=0;left=0;bottom=0;right=0;overflow=hidden;" vertex="1" parent="qpgoH7Dkkdjb4YdEsGVw-14">
          <mxGeometry x="257" width="256" height="40" as="geometry" />
        </mxCell>
      </root>
    </mxGraphModel>
  </diagram>
</mxfile>
